<svg width="512" height="512" viewBox="0 0 512 512" fill="none" xmlns="http://www.w3.org/2000/svg">
<g clip-path="url(#clip0_165_381)">
<path d="M256 0C114.615 0 0 114.615 0 256C0 397.385 114.615 512 256 512C397.385 512 512 397.385 512 256C512 114.615 397.385 0 256 0ZM412 375.438C412 395.63 395.63 412 375.438 412H136.562C116.37 412 100 395.63 100 375.438V136.562C100 116.37 116.37 100 136.562 100H144.068C152.038 100 158.499 106.461 158.499 114.431C158.499 118.371 156.916 122.169 154.039 124.86C149.285 129.306 146.312 135.632 146.312 142.656C146.312 156.704 158.196 167.976 172.459 166.968C184.564 166.113 194.305 156.243 195.019 144.129C195.465 136.562 192.454 129.691 187.42 124.939C184.526 122.207 182.875 118.413 182.875 114.433V114.43C182.875 106.46 189.336 99.999 197.306 99.999H229.381C237.351 99.999 243.812 106.46 243.812 114.43C243.812 118.37 242.229 122.168 239.352 124.859C234.598 129.305 231.625 135.631 231.625 142.655C231.625 156.703 243.509 167.975 257.772 166.967C269.877 166.112 279.618 156.242 280.332 144.128C280.778 136.561 277.767 129.69 272.733 124.938C269.839 122.206 268.188 118.412 268.188 114.432V114.429C268.188 106.459 274.649 99.998 282.619 99.998H314.694C322.664 99.998 329.125 106.459 329.125 114.429C329.125 118.369 327.542 122.167 324.665 124.858C319.911 129.304 316.938 135.63 316.938 142.654C316.938 156.702 328.822 167.974 343.085 166.966C355.19 166.111 364.931 156.241 365.645 144.127C366.091 136.56 363.08 129.689 358.046 124.937C355.152 122.205 353.501 118.411 353.501 114.431V114.428C353.501 106.458 359.962 99.997 367.932 99.997H375.438C395.63 100 412 116.37 412 136.562V375.438Z" fill="#929395"/>
<path d="M351.062 215.781H160.938C154.207 215.781 148.75 221.238 148.75 227.969V351.063C148.75 357.794 154.207 363.251 160.938 363.251H351.063C357.794 363.251 363.251 357.794 363.251 351.063V227.969C363.25 221.238 357.793 215.781 351.062 215.781Z" fill="#929395"/>
</g>
<defs>
<clipPath id="clip0_165_381">
<rect width="512" height="512" fill="white"/>
</clipPath>
</defs>
</svg>
