<svg width="389" height="389" viewBox="0 0 389 389" fill="none" xmlns="http://www.w3.org/2000/svg">
<g clip-path="url(#clip0_165_405)">
<path d="M388.223 160.284H365.279L335.279 24.032H52.943L22.943 160.284H0V299.434H20V364.19H120V299.434H268.223V364.19H368.223V299.434H388.223V160.284ZM30 269.435V190.285H358.223V269.435H30ZM77.057 54.032H311.166L334.561 160.284H53.662L77.057 54.032ZM90 334.19H50V299.434H90V334.19ZM338.223 334.19H298.223V299.434H338.223V334.19Z" fill="#929395"/>
<path d="M89.5749 214.859H49.575V244.859H89.5749V214.859Z" fill="#929395"/>
<path d="M338.648 214.859H298.648V244.859H338.648V214.859Z" fill="#929395"/>
</g>
<defs>
<clipPath id="clip0_165_405">
<rect width="388.223" height="388.223" fill="white"/>
</clipPath>
</defs>
</svg>
