<svg width="166" height="166" viewBox="0 0 166 166" fill="none" xmlns="http://www.w3.org/2000/svg">
<path d="M140.48 42.7645C139.747 41.8742 137.253 42.2282 136.037 42.5403C135.037 42.9045 134.133 43.4949 133.398 44.2654C133.216 44.4272 133.035 44.5882 132.855 44.7414C106.655 66.94 81.2413 88.8469 58.3313 112.783C57.8716 113.263 57.387 113.715 56.716 114.344C56.367 114.67 55.9698 115.04 55.5023 115.483C52.6316 112.331 46.0679 104.892 40.7768 98.8971C37.9983 95.7497 35.5744 93.0031 34.2288 91.4936C33.4843 90.6256 32.7867 89.7184 32.139 88.776C31.6999 88.161 31.2452 87.524 30.7692 86.9203C29.8974 85.813 28.273 83.7559 25.9768 85.3392C24.031 86.687 24.7709 88.6022 25.6264 90.128C25.7264 90.3039 25.8243 90.4827 25.9215 90.6614C26.2685 91.3414 26.6719 91.9911 27.1274 92.6037C31.197 97.7479 44.0512 113.539 48.301 118.216C51.7186 121.975 53.9219 123.476 56.157 123.559C56.218 123.559 56.2798 123.559 56.3408 123.559C58.8945 123.559 61.5006 121.583 64.853 118.409C82.4968 101.695 98.4318 86.7721 113.569 72.7928C118.4 68.3303 123.454 63.9458 128.342 59.7046C131.363 57.0842 134.485 54.3744 137.525 51.6732C139.005 50.3595 140.382 49.0486 140.98 47.4816C141.486 46.1565 141.38 43.8562 140.48 42.7645Z" fill="#929395"/>
<path d="M126.966 164.761H119.903C118.214 164.356 116.499 164.073 114.77 163.914C99.4759 163.537 84.1808 163.115 68.8843 162.969C57.3644 162.859 45.8211 162.732 34.3245 163.323C12.9304 164.427 0.186098 147.452 1.73249 132.619C2.16875 128.438 1.78216 124.167 1.7247 119.938C1.37782 94.4058 0.95501 68.8747 0.710283 43.3408C0.656372 37.7078 0.652109 31.9705 1.60832 26.4518C3.87045 13.3996 15.643 4.13052 30.1727 3.72832C53.1097 3.0899 76.0545 2.74084 98.9936 2.17903C108.871 1.93714 118.753 1.64778 128.615 1.06824C144.304 0.146078 160.005 8.55619 162.27 27.1519C163.858 40.1778 164.768 53.3391 165.045 66.4601C165.512 88.5714 165.308 110.699 165.246 132.819C165.208 146.126 154.023 159.791 140.867 162.648C136.296 163.643 131.603 164.074 126.966 164.761ZM79.2749 155.469C85.0328 155.732 90.7877 156.087 96.5484 156.24C109.33 156.577 122.092 158.411 134.901 156.174C147.63 153.95 157.478 143.428 157.432 131.848C157.359 113.612 157.355 95.3758 157.42 77.1402C157.463 61.6237 157.593 46.1654 154.582 30.7746C151.798 16.5428 143.165 9.70244 128.625 9.61306C106.743 9.47899 84.8576 9.79538 62.9768 10.2735C52.4074 10.5047 41.8302 11.2971 31.2998 12.2916C23.5835 13.0208 16.5183 15.5603 12.6033 23.0887C9.73731 28.7624 8.29648 35.0487 8.40538 41.4042C8.42028 70.5814 8.73526 99.7601 8.526 128.939C8.40683 145.498 17.9306 155.581 34.4444 155.483C49.3884 155.393 64.3317 155.463 79.2749 155.469Z" fill="#929395"/>
</svg>
