<svg width="32" height="32" viewBox="0 0 32 32" fill="none" xmlns="http://www.w3.org/2000/svg">
<g clip-path="url(#clip0_165_419)">
<path d="M30.83 30.773C30.597 30.843 30.481 30.728 30.357 30.67C26.951 29.047 23.525 27.466 20.242 25.599C20.151 25.547 20.038 25.491 19.922 25.442L19.899 25.433C19.34 25.196 19.083 25.275 18.773 25.811C18.647 26.032 18.512 26.305 18.392 26.585L18.37 26.642C17.63 28.296 16.896 29.954 16.152 31.608C16.095 31.735 16.072 31.892 15.901 31.999C15.628 31.428 15.355 30.868 15.092 30.304C14.4534 28.9413 13.8157 27.5777 13.179 26.213C13.094 26.023 13.01 25.866 12.916 25.715L12.926 25.733C12.663 25.316 12.368 25.216 11.907 25.399C11.695 25.494 11.52 25.586 11.352 25.687L11.375 25.674C8.07402 27.465 4.74202 29.197 1.41902 30.935C1.35602 30.987 1.27402 31.018 1.18502 31.018C1.17502 31.018 1.16402 31.018 1.15402 31.017H1.15502C1.03402 30.888 1.18302 30.787 1.22702 30.689C2.83402 27.237 4.41202 23.769 6.31902 20.466C6.36402 20.387 6.40902 20.308 6.44602 20.225C6.73602 19.57 6.56202 19.097 5.90002 18.805C5.28602 18.535 4.65802 18.297 4.04402 18.02C2.69302 17.412 1.34702 16.782 -0.000976562 16.161C0.0610234 15.943 0.248023 15.935 0.386023 15.869C2.13336 15.0337 3.88636 14.2027 5.64502 13.376C5.72702 13.337 5.81102 13.302 5.89202 13.267C6.69702 12.868 6.80602 12.543 6.36802 11.761C5.32402 9.88201 4.33002 7.98501 3.34302 6.08601C2.56436 4.59001 1.79036 3.09101 1.02102 1.58901C0.969024 1.48701 0.855023 1.39501 0.901023 1.25201C1.06702 1.17601 1.18302 1.30201 1.30302 1.36101C4.73802 3.00401 8.18302 4.62901 11.509 6.49301C11.524 6.50201 11.537 6.51501 11.554 6.52401C12.402 6.97901 12.712 6.88301 13.119 5.99301C13.954 4.16301 14.777 2.32501 15.605 0.491009C15.678 0.330009 15.707 0.143009 15.898 -0.00299072C16.245 0.761009 16.587 1.50901 16.924 2.26001C17.4527 3.43468 17.979 4.61001 18.503 5.78601C18.532 5.85301 18.562 5.91901 18.593 5.98501C19.022 6.89901 19.357 7.00901 20.252 6.50501C23.538 4.64901 26.913 2.96101 30.278 1.25401C30.369 1.20801 30.453 1.12501 30.577 1.14501C30.65 1.30601 30.524 1.42001 30.468 1.53901C28.864 4.97301 27.275 8.41901 25.417 11.724C25.408 11.74 25.395 11.754 25.388 11.77C24.946 12.605 25.03 12.906 25.895 13.299C27.744 14.141 29.559 15.053 31.38 15.951L31.682 16.107C31.608 16.311 31.404 16.319 31.255 16.385C29.536 17.16 27.812 17.925 26.091 18.695C24.999 19.183 24.899 19.489 25.483 20.521C27.379 23.873 29.081 27.321 30.829 30.772L30.83 30.773ZM7.57202 7.75401C7.55602 7.70401 7.51702 7.66301 7.47802 7.70801C7.43902 7.75301 7.48502 7.78201 7.53402 7.79001C7.58202 8.10201 7.77002 8.35601 7.91002 8.62501C8.86402 10.481 9.83002 12.323 10.797 14.181C9.52702 14.785 8.26002 15.389 6.93902 16.019C8.24902 16.7 9.54102 17.258 10.819 17.84C9.62702 19.98 8.61602 22.147 7.65202 24.334L7.74702 24.413C9.84702 23.309 11.947 22.206 14.068 21.09L15.934 25.033L17.714 21.076C19.86 22.255 22.025 23.282 24.258 24.294C24.246 24.223 24.231 24.161 24.213 24.101L24.216 24.111C23.228 22.13 22.243 20.149 21.176 18.214C20.958 17.816 20.958 17.815 21.387 17.622C22.215 17.253 23.046 16.889 23.871 16.515C24.158 16.384 24.467 16.297 24.786 16.052L20.976 14.176C22.1614 12.0227 23.2504 9.83134 24.243 7.60201C22.025 8.65401 19.86 9.74301 17.707 10.938L15.884 6.89801C15.26 8.27501 14.664 9.58901 14.06 10.922C12.14 9.85801 10.207 8.93901 8.27202 8.02901C8.04502 7.92501 7.83302 7.77001 7.57102 7.75301L7.57202 7.75401Z" fill="#929395"/>
<path d="M15.906 12.777C17.656 12.786 19.071 14.207 19.071 15.958C19.071 17.715 17.647 19.139 15.89 19.139C14.133 19.139 12.709 17.715 12.709 15.958V15.957C12.715 14.199 14.141 12.777 15.9 12.777C15.902 12.777 15.905 12.777 15.907 12.777H15.906ZM16.799 15.935C16.787 15.452 16.393 15.064 15.908 15.064C15.416 15.064 15.017 15.463 15.017 15.955C15.017 15.962 15.017 15.97 15.017 15.977V15.976C15.036 16.456 15.43 16.839 15.913 16.839C15.928 16.839 15.943 16.839 15.957 16.838H15.955C16.428 16.804 16.799 16.412 16.799 15.933V15.935Z" fill="#929395"/>
</g>
<defs>
<clipPath id="clip0_165_419">
<rect width="32" height="32" fill="white"/>
</clipPath>
</defs>
</svg>
