<svg width="467" height="467" viewBox="0 0 467 467" fill="none" xmlns="http://www.w3.org/2000/svg">
<g clip-path="url(#clip0_165_441)">
<path d="M233.004 0C104.224 0 0 104.212 0 233.004C0 361.785 104.212 466.008 233.004 466.008C361.786 466.008 466.008 361.796 466.008 233.004C466.008 104.222 361.796 0 233.004 0ZM244.484 242.659L180.972 318.17C175.639 324.51 166.175 325.326 159.837 319.994C153.497 314.661 152.68 305.199 158.013 298.859L218.004 227.534V58.028C218.004 49.744 224.72 43.028 233.004 43.028C241.288 43.028 248.004 49.744 248.004 58.028V233.004C248.004 236.536 246.757 239.956 244.484 242.659Z" fill="#929395"/>
</g>
<defs>
<clipPath id="clip0_165_441">
<rect width="466.008" height="466.008" fill="white"/>
</clipPath>
</defs>
</svg>
