<svg width="512" height="512" viewBox="0 0 512 512" fill="none" xmlns="http://www.w3.org/2000/svg">
<g clip-path="url(#clip0_165_464)">
<path d="M494.32 196.801L489.462 188.67H403.946V228.234H395.389V170.863H351.069L322.931 145.913H276.401V123.218H291.367V89.827H172.742V123.218H187.708V145.913H139.265L111.127 170.863H55.791V187.559V253.795H33.391V211.179H0V329.804H33.391V287.187H55.791V353.423V370.119H139.265L197.974 422.173H395.388V363.729H403.945V403.294H489.461L494.319 395.162C496.129 392.135 511.999 363.625 511.999 295.981C511.999 228.337 496.13 199.829 494.32 196.801ZM221.101 123.22H243.01V145.915H221.101V123.22ZM468.927 369.902H437.337V330.337H361.997V388.781H210.646L151.937 336.727H89.183V204.255H123.8L151.938 179.305H310.258L338.396 204.255H361.997V261.626H437.337V222.062H468.927C472.8 233.448 478.608 257.018 478.608 295.983C478.609 334.947 472.801 358.516 468.927 369.902Z" fill="#929395"/>
</g>
<defs>
<clipPath id="clip0_165_464">
<rect width="511.999" height="511.999" fill="white"/>
</clipPath>
</defs>
</svg>
