<svg width="512" height="512" viewBox="0 0 512 512" fill="none" xmlns="http://www.w3.org/2000/svg">
<path d="M448 387.654V256V124.346C472.858 115.562 490.667 91.872 490.667 64C490.667 28.645 462.022 0 426.667 0C391.312 0 362.667 28.645 362.667 64C362.667 91.872 380.475 115.562 405.334 124.346V234.667H277.334V124.346C302.192 115.562 320 91.872 320 64C320 28.645 291.355 0 256 0C220.645 0 192 28.645 192 64C192 91.872 209.808 115.562 234.667 124.346V234.667H106.667V124.346C131.525 115.562 149.334 91.872 149.334 64C149.334 28.645 120.689 0 85.334 0C49.979 0 21.334 28.645 21.334 64C21.334 91.872 39.142 115.562 64.001 124.346V256C64.001 267.782 73.552 277.333 85.334 277.333H234.667V387.654C209.808 396.438 192 420.128 192 448C192 483.355 220.645 512 256 512C291.355 512 320 483.355 320 448C320 420.128 302.192 396.438 277.333 387.654V277.333H405.333V387.654C380.475 396.438 362.666 420.128 362.666 448C362.666 483.355 391.311 512 426.666 512C462.021 512 490.666 483.355 490.666 448C490.667 420.128 472.858 396.438 448 387.654ZM426.667 42.667C438.458 42.667 448 52.209 448 64C448 75.791 438.458 85.333 426.667 85.333C414.876 85.333 405.333 75.791 405.333 64C405.333 52.209 414.875 42.667 426.667 42.667ZM256 42.667C267.791 42.667 277.333 52.209 277.333 64C277.333 75.791 267.791 85.333 256 85.333C244.209 85.333 234.667 75.791 234.667 64C234.667 52.209 244.209 42.667 256 42.667ZM85.333 42.667C97.124 42.667 106.666 52.209 106.666 64C106.666 75.791 97.124 85.333 85.333 85.333C73.542 85.333 64 75.791 64 64C64 52.209 73.542 42.667 85.333 42.667ZM256 469.333C244.209 469.333 234.667 459.791 234.667 448C234.667 436.209 244.209 426.667 256 426.667C267.791 426.667 277.333 436.209 277.333 448C277.333 459.791 267.791 469.333 256 469.333ZM426.667 469.333C414.876 469.333 405.334 459.791 405.334 448C405.334 436.209 414.876 426.667 426.667 426.667C438.458 426.667 448 436.209 448 448C448 459.791 438.458 469.333 426.667 469.333Z" fill="#929395"/>
</svg>
