<svg width="950" height="950" viewBox="0 0 950 950" fill="none" xmlns="http://www.w3.org/2000/svg">
<g clip-path="url(#clip0_165_511)">
<path d="M475 0C212.665 0 0 212.665 0 475C0 737.335 212.665 950 475 950C737.335 950 950 737.335 950 475C950 212.665 737.335 0 475 0ZM875.438 475.001C875.438 529.05 864.847 581.494 843.96 630.877C823.79 678.565 794.92 721.386 758.152 758.153C721.382 794.922 678.56 823.792 630.875 843.962C581.493 864.849 529.049 875.439 475 875.439C420.951 875.439 368.507 864.847 319.125 843.96C271.438 823.79 228.616 794.92 191.848 758.151C155.08 721.382 126.21 678.56 106.04 630.875C85.153 581.493 74.562 529.049 74.562 475C74.562 420.951 85.153 368.507 106.04 319.124C126.21 271.437 155.08 228.615 191.848 191.847C228.617 155.079 271.439 126.209 319.125 106.039C368.507 85.153 420.951 74.562 475 74.562C529.049 74.562 581.493 85.153 630.875 106.04C678.563 126.21 721.384 155.08 758.152 191.848C794.92 228.617 823.79 271.439 843.96 319.125C864.848 368.508 875.438 420.952 875.438 475.001Z" fill="#929395"/>
<path d="M475 119.562C380.059 119.562 290.8 156.534 223.667 223.667C156.534 290.801 119.562 380.06 119.562 475.001C119.562 569.942 156.534 659.2 223.667 726.334C290.801 793.468 380.059 830.439 475 830.439C569.941 830.439 659.199 793.466 726.333 726.334C793.466 659.2 830.437 569.942 830.437 475.001C830.437 380.06 793.465 290.801 726.333 223.668C659.2 156.534 569.941 119.562 475 119.562ZM586.608 196.646L579.417 227.858L571.717 261.281L521.997 477.088L518.083 494.077C517.378 497.052 516.294 500.212 514.895 503.074C507.626 517.942 492.726 526.581 477.222 526.581C471.046 526.581 464.771 525.208 458.849 522.313C441.575 513.868 432.719 495.115 436.045 477.087C436.722 473.419 437.891 469.78 439.609 466.266L546.706 247.204L560.474 219.043L573.666 192.059C573.879 191.622 574.127 191.24 574.389 190.881C575.764 188.999 577.742 188.153 579.724 188.153C583.511 188.153 587.286 191.192 586.762 195.748C586.729 196.042 586.678 196.341 586.608 196.646ZM171.893 467.204C171.862 465.591 171.742 463.794 171.766 461.809C171.804 459.821 171.846 457.649 171.891 455.301C171.95 452.952 171.956 450.413 172.07 447.715C172.258 445.025 172.459 442.164 172.67 439.143C172.777 437.628 172.886 436.074 172.998 434.479C173.152 432.888 173.375 431.266 173.569 429.599C173.992 426.273 174.35 422.766 174.884 419.135C175.508 415.514 176.158 411.745 176.832 407.836C177.125 405.865 177.648 403.915 178.076 401.9C178.527 399.889 178.986 397.844 179.453 395.766C183.408 379.197 189.406 360.732 198.342 341.48C198.86 340.256 199.457 339.065 200.066 337.873C200.669 336.675 201.274 335.472 201.883 334.263C203.113 331.849 204.311 329.38 205.61 326.937C206.973 324.527 208.349 322.095 209.737 319.642C210.434 318.413 211.133 317.178 211.836 315.937C212.542 314.698 213.343 313.514 214.098 312.29C215.636 309.855 217.187 307.4 218.75 304.926C219.511 303.67 220.37 302.479 221.216 301.269C222.064 300.059 222.915 298.844 223.769 297.624C224.625 296.403 225.485 295.178 226.348 293.948L227.647 292.098L229.033 290.306C230.89 287.91 232.761 285.495 234.644 283.065L236.063 281.236C236.547 280.634 237.06 280.057 237.559 279.465C238.566 278.286 239.576 277.103 240.589 275.916C241.605 274.728 242.624 273.536 243.646 272.34L245.185 270.543C245.711 269.954 246.261 269.388 246.8 268.808C248.973 266.498 251.16 264.174 253.359 261.836L255.018 260.081L256.756 258.399C257.919 257.275 259.084 256.149 260.253 255.019C264.851 250.397 269.891 246.161 274.897 241.748C277.437 239.589 280.102 237.561 282.728 235.445C284.049 234.395 285.374 233.344 286.702 232.29C288.074 231.296 289.449 230.301 290.827 229.303C312.78 213.163 338.005 199.569 365.345 189.686C368.787 188.51 372.236 187.331 375.691 186.15C379.167 185.023 382.706 184.091 386.23 183.054L391.541 181.55L396.918 180.288L402.313 179.03C404.117 178.625 405.913 178.15 407.739 177.857C411.385 177.197 415.036 176.537 418.689 175.876C419.605 175.72 420.519 175.531 421.438 175.401L424.202 175.04L429.739 174.323L435.29 173.613C437.142 173.359 439.002 173.287 440.861 173.117L452.044 172.255C453.416 172.268 452.61 172.253 452.999 172.253L453.321 172.243L453.966 172.222L455.255 172.181L457.833 172.1L462.989 171.937L465.567 171.855L466.855 171.814C467.278 171.797 467.812 171.826 468.286 171.83L474.143 171.96L480.013 172.11L482.952 172.193C483.923 172.23 484.834 172.32 485.778 172.381C489.53 172.662 493.28 172.943 497.025 173.223C498.908 173.328 500.763 173.616 502.63 173.834L508.226 174.536L513.825 175.248L519.377 176.209C523.07 176.887 526.791 177.465 530.461 178.243C534.123 179.081 537.779 179.918 541.427 180.754C544.376 181.483 547.308 182.267 550.229 183.081L536.89 210.365L523.702 237.342C521.049 236.403 518.392 235.462 515.73 234.518C512.845 233.546 509.9 232.758 506.973 231.854L502.562 230.542L498.086 229.455L493.596 228.356C492.095 228.001 490.603 227.573 489.079 227.324C486.038 226.742 482.994 226.159 479.948 225.576C479.19 225.437 478.407 225.262 477.671 225.151L475.482 224.844L471.092 224.214L466.685 223.563C466.302 223.513 465.982 223.441 465.547 223.408L464.262 223.303L461.692 223.092L456.55 222.669L453.979 222.458L452.693 222.353L452.05 222.3L451.729 222.274C451.904 222.269 450.883 222.249 452.041 222.255L442.627 221.914C441.056 221.878 439.477 221.741 437.908 221.785L433.193 221.855L428.47 221.918L426.105 221.947C425.317 221.965 424.537 222.042 423.751 222.086C420.605 222.289 417.462 222.492 414.321 222.694C412.742 222.755 411.188 222.994 409.625 223.163L404.934 223.706L400.237 224.243L395.585 225.013C392.488 225.557 389.363 225.992 386.284 226.616C383.21 227.289 380.141 227.96 377.08 228.631C352.652 234.423 329.229 243.709 308.107 255.81C306.778 256.556 305.453 257.299 304.129 258.041C302.843 258.845 301.561 259.647 300.281 260.448C297.73 262.068 295.128 263.604 292.636 265.275C287.726 268.715 282.73 271.998 278.126 275.693C276.953 276.592 275.782 277.489 274.616 278.383L272.865 279.723L271.188 281.14C268.951 283.032 266.727 284.912 264.517 286.782C263.966 287.253 263.402 287.71 262.863 288.191L261.282 289.666C260.227 290.648 259.176 291.628 258.128 292.604C257.078 293.582 256.031 294.557 254.987 295.528C254.468 296.017 253.934 296.492 253.43 296.992L251.946 298.515C249.965 300.546 247.997 302.563 246.043 304.566L244.576 306.068L243.192 307.63C242.27 308.672 241.351 309.709 240.436 310.743C239.518 311.778 238.604 312.809 237.694 313.836C236.783 314.864 235.857 315.876 235.027 316.955C233.318 319.081 231.623 321.191 229.943 323.283C229.112 324.338 228.235 325.356 227.45 326.431C226.667 327.509 225.887 328.581 225.111 329.65C223.553 331.791 222.009 333.913 220.48 336.015C219.008 338.157 217.632 340.334 216.219 342.464C215.518 343.533 214.82 344.597 214.125 345.656C213.422 346.711 212.732 347.767 212.118 348.859C201.659 365.985 193.919 382.907 188.299 398.402C187.622 400.349 186.956 402.267 186.301 404.152C185.668 406.045 184.94 407.881 184.445 409.745C183.36 413.456 182.314 417.034 181.31 420.472C180.391 423.936 179.657 427.296 178.873 430.498C178.499 432.102 178.099 433.665 177.77 435.201C177.483 436.745 177.204 438.25 176.932 439.717C176.386 442.657 175.869 445.442 175.383 448.059C174.971 450.686 174.684 453.159 174.362 455.461C174.053 457.77 173.767 459.905 173.505 461.861C173.256 463.824 173.171 465.627 173.02 467.232C172.491 473.659 172.209 477.086 172.209 477.087C172.205 477.088 172.097 473.65 171.893 467.204ZM733.701 321.438C734.515 322.697 735.318 323.956 736.04 325.251C748.244 345.632 757.223 365.743 763.701 384.127C764.482 386.439 765.249 388.711 766.005 390.947C766.734 393.192 767.553 395.375 768.134 397.579C769.376 401.975 770.573 406.214 771.724 410.287C772.777 414.387 773.624 418.361 774.508 422.149C774.932 424.045 775.378 425.897 775.749 427.712C776.076 429.535 776.395 431.315 776.704 433.045C777.313 436.518 777.89 439.806 778.433 442.899C778.894 446.003 779.221 448.925 779.575 451.645C779.911 454.369 780.221 456.887 780.506 459.197C780.774 461.509 780.871 463.614 781.033 465.499C781.581 473.055 781.874 477.085 781.874 477.085H681.874C681.874 477.085 681.993 474.248 682.216 468.931C682.257 467.6 682.389 466.106 682.384 464.469C682.369 462.831 682.353 461.044 682.334 459.114C682.308 457.179 682.34 455.092 682.276 452.871C682.144 450.655 682.004 448.299 681.856 445.809C681.787 444.561 681.716 443.278 681.645 441.962C681.533 440.652 681.356 439.318 681.212 437.945C680.89 435.205 680.645 432.311 680.244 429.317C679.765 426.331 679.267 423.222 678.75 420C678.542 418.37 678.11 416.766 677.779 415.104C677.427 413.444 677.071 411.755 676.708 410.04C673.612 396.359 668.854 381.083 661.662 365.086C661.253 364.065 660.767 363.078 660.27 362.089C659.781 361.094 659.291 360.095 658.796 359.09C657.799 357.085 656.843 355.025 655.794 352.99C654.687 350.985 653.568 348.961 652.44 346.92C651.878 345.894 651.313 344.863 650.746 343.828C650.177 342.792 649.516 341.811 648.901 340.791C647.651 338.759 646.391 336.709 645.121 334.644C644.51 333.59 643.802 332.601 643.109 331.592C642.416 330.582 641.72 329.568 641.023 328.55C640.326 327.529 639.626 326.503 638.923 325.473L637.868 323.922L636.73 322.428C635.21 320.422 633.682 318.402 632.142 316.368L630.986 314.832C630.59 314.328 630.166 313.848 629.756 313.352C628.931 312.365 628.102 311.375 627.27 310.382C626.439 309.385 625.605 308.384 624.768 307.381L623.511 305.869C623.08 305.375 622.625 304.904 622.183 304.418C620.399 302.48 618.604 300.529 616.798 298.567L615.441 297.088L614.007 295.681C613.05 294.738 612.091 293.792 611.129 292.845C607.363 288.943 603.191 285.408 599.084 281.672C597.337 280.151 595.511 278.71 593.696 277.235L602.08 240.845L609.973 206.589C614.487 208.933 618.929 211.374 623.28 213.92C624.848 214.824 626.413 215.727 627.975 216.627C629.496 217.593 631.013 218.557 632.527 219.519C635.542 221.465 638.603 223.335 641.544 225.345C647.353 229.463 653.217 233.447 658.653 237.862C660.033 238.943 661.41 240.021 662.782 241.096L664.838 242.711L666.817 244.403C669.448 246.671 672.063 248.924 674.663 251.166C675.31 251.731 675.97 252.283 676.602 252.859L678.466 254.619C679.705 255.794 680.943 256.965 682.175 258.132C683.406 259.304 684.635 260.471 685.859 261.635C686.467 262.221 687.09 262.793 687.683 263.39L689.43 265.206C691.755 267.633 694.063 270.044 696.355 272.438L698.07 274.238L699.698 276.1C700.781 277.342 701.86 278.579 702.934 279.812C704.008 281.049 705.078 282.281 706.143 283.508C707.207 284.737 708.285 285.951 709.264 287.232C711.266 289.767 713.25 292.282 715.22 294.776C716.192 296.034 717.207 297.256 718.129 298.535C719.049 299.818 719.963 301.095 720.873 302.366C722.691 304.919 724.492 307.449 726.277 309.956C727.998 312.507 729.617 315.093 731.263 317.631C732.079 318.909 732.892 320.176 733.701 321.438Z" fill="#929395"/>
</g>
<defs>
<clipPath id="clip0_165_511">
<rect width="950" height="950" fill="white"/>
</clipPath>
</defs>
</svg>
